<svg width="23" height="22" viewBox="0 0 23 22" fill="none" xmlns="http://www.w3.org/2000/svg">
<path d="M1.5 10.9996L11.1422 15.8207C11.2734 15.8863 11.339 15.9191 11.4078 15.932C11.4687 15.9434 11.5313 15.9434 11.5922 15.932C11.661 15.9191 11.7266 15.8863 11.8578 15.8207L21.5 10.9996M1.5 15.9996L11.1422 20.8207C11.2734 20.8863 11.339 20.9191 11.4078 20.932C11.4687 20.9434 11.5313 20.9434 11.5922 20.932C11.661 20.9191 11.7266 20.8863 11.8578 20.8207L21.5 15.9996M1.5 5.99958L11.1422 1.17846C11.2734 1.11287 11.339 1.08008 11.4078 1.06717C11.4687 1.05574 11.5313 1.05574 11.5922 1.06717C11.661 1.08008 11.7266 1.11287 11.8578 1.17846L21.5 5.99958L11.8578 10.8207C11.7266 10.8863 11.661 10.9191 11.5922 10.932C11.5313 10.9434 11.4687 10.9434 11.4078 10.932C11.339 10.9191 11.2734 10.8863 11.1422 10.8207L1.5 5.99958Z" stroke="white" stroke-width="2" stroke-linecap="round" stroke-linejoin="round"/>
</svg>
